<svg xmlns="http://www.w3.org/2000/svg" version="1.2" viewBox="173.85 17.59 346.99 691.66">
	<defs>
		<radialGradient id="g1" cx="0" cy="0" r="1" gradientUnits="userSpaceOnUse" gradientTransform="matrix(6.15,1560.325,-1560.325,6.15,-267.619,333.409)">
			<stop offset=".006" stop-color="#e7e5f0"/>
			<stop offset="1" stop-color="#8e75a0"/>
		</radialGradient>
		<linearGradient id="g2" x2="1" gradientUnits="userSpaceOnUse" gradientTransform="matrix(32.852,-857.969,1886.979,72.252,-434.303,862.936)">
			<stop offset=".016" stop-color="#ffb880"/>
			<stop offset="1" stop-color="#ff8777"/>
		</linearGradient>
		<linearGradient id="g3" x2="1" gradientUnits="userSpaceOnUse" gradientTransform="matrix(166.986,-154.67,366.229,395.392,141.432,284.108)">
			<stop offset="0" stop-color="#ff8777"/>
			<stop offset=".984" stop-color="#ffb880"/>
		</linearGradient>
		<linearGradient id="g4" x2="1" gradientUnits="userSpaceOnUse" gradientTransform="matrix(6.888,-179.884,680.025,26.038,-137.385,300.436)">
			<stop offset="0" stop-color="#ff8777"/>
			<stop offset=".984" stop-color="#ffb880"/>
		</linearGradient>
		<linearGradient id="g5" x2="1" gradientUnits="userSpaceOnUse" gradientTransform="matrix(10.091,-263.548,699.627,26.789,-60.611,276.758)">
			<stop offset="0" stop-color="#ff8777"/>
			<stop offset=".984" stop-color="#ffb880"/>
		</linearGradient>
		<linearGradient id="g6" x2="1" gradientUnits="userSpaceOnUse" gradientTransform="matrix(8.736,-228.146,853.162,32.667,-59.493,283.827)">
			<stop offset="0" stop-color="#ff8777"/>
			<stop offset=".984" stop-color="#ffb880"/>
		</linearGradient>
		<linearGradient id="g7" x2="1" gradientUnits="userSpaceOnUse" gradientTransform="matrix(.106,-2.757,59.106,2.263,366.537,160.212)">
			<stop offset=".006" stop-color="#b060f4"/>
			<stop offset="1" stop-color="#ffeadb"/>
		</linearGradient>
		<linearGradient id="g8" x2="1" gradientUnits="userSpaceOnUse" gradientTransform="matrix(.082,-2.131,-12.877,-0.493,252.765,119.254)">
			<stop offset="0" stop-color="#ffeadb"/>
			<stop offset=".994" stop-color="#b060f4"/>
		</linearGradient>
		<linearGradient id="g9" x2="1" gradientUnits="userSpaceOnUse" gradientTransform="matrix(136.87,18.423,-11.43,84.917,290.842,377.866)">
			<stop offset="0" stop-color="#000000"/>
			<stop offset="1" stop-color="#ec4400"/>
		</linearGradient>
		<linearGradient id="g10" x2="1" gradientUnits="userSpaceOnUse" gradientTransform="matrix(-127.821,-17.205,6.46,-48.03,330.297,347.397)">
			<stop offset="0" stop-color="#000000"/>
			<stop offset="1" stop-color="#ec4400"/>
		</linearGradient>
	</defs>
	<style>
		.s0 { opacity: .8;mix-blend-mode: multiply;fill: url(#g1) } 
		.s1 { fill: #ffffff } 
		.s2 { fill: url(#g2) } 
		.s3 { fill: url(#g3) } 
		.s4 { fill: url(#g4) } 
		.s5 { fill: url(#g5) } 
		.s6 { fill: url(#g6) } 
		.s7 { opacity: .6;mix-blend-mode: multiply;fill: #f3bac0 } 
		.s8 { opacity: .6;mix-blend-mode: multiply;fill: url(#g7) } 
		.s9 { opacity: .2;mix-blend-mode: multiply;fill: #f3bac0 } 
		.s10 { opacity: .2;mix-blend-mode: multiply;fill: #d87290 } 
		.s11 { opacity: .6;mix-blend-mode: multiply;fill: url(#g8) } 
		.s12 { opacity: .3;mix-blend-mode: multiply;fill: #d87290 } 
		.s13 { opacity: .5;mix-blend-mode: multiply;fill: #d87290 } 
		.s14 { mix-blend-mode: screen;fill: url(#g9) } 
		.s15 { mix-blend-mode: screen;fill: url(#g10) } 
		.s16 { opacity: .97;mix-blend-mode: soft-light;fill: #f5ffff } 
		.s17 { opacity: .97;mix-blend-mode: soft-light;fill: #f5ee8f } 
		.s18 { fill: #b24d61 } 
		.s19 { opacity: .31;mix-blend-mode: multiply;fill: #d87290 } 
	</style>
	<g id="Layer 1">
		<g id="&lt;Group&gt;">
			<g id="&lt;Clip Group&gt;">
				<g id="&lt;Group&gt;">
					<g id="&lt;Group&gt;">
						<path id="&lt;Path&gt;" class="s0" d="m217.15 315.2c0 0-0.56 22.3-0.19 50.4 0.04 0.9 0 1.85 0.03 2.87 0.51 37.49 2.6 84.09 9.45 102.67l46.2 37.63c0 0 18.94 157.28 22.3 200.34l108.38-0.43q-0.01-0.05-0.01-0.1-0.04-0.19-0.08-0.39-0.38-2.31-0.77-4.59-0.04-0.26-0.08-0.51-0.43-2.56-0.81-5.09c-0.19-1.15-18-128.94-18.16-130.06q-0.14-0.85-0.26-1.69-0.2-1.33-0.39-2.64-0.52-3.6-0.96-6.97-0.18-1.39-0.35-2.74-0.01-0.12-0.03-0.25-0.13-1.03-0.24-2.03-0.06-0.47-0.11-0.92-0.08-0.76-0.16-1.51-0.15-1.4-0.28-2.73-0.16-1.66-0.28-3.21-0.07-0.82-0.12-1.61-0.01-0.19-0.03-0.38-0.03-0.53-0.06-1.05-0.02-0.45-0.04-0.88-0.05-0.76-0.06-1.48-0.03-0.66-0.03-1.28-0.01-0.73-0.01-1.41-0.01-2.44 0.08-4.88 0.02-0.5 0.05-1 0.08-1.92 0.22-3.83 0.08-0.8 0.16-1.6 0.15-1.57 0.34-3.13 0.16-1.12 0.34-2.23c0.16-1.04 0.31-2.08 0.51-3.11q0.02 0 0.76-0.2 0.11-0.04 0.24-0.08c1.08-0.31 3.02-0.88 5.67-1.69q0.03-0.01 0.07-0.02 0.37-0.11 0.75-0.23c2.39-0.74 5.24-1.64 8.47-2.71q1.11-0.37 2.26-0.76 0.26-0.09 0.53-0.18 0.25-0.08 0.51-0.17 0.33-0.11 0.66-0.23 0.21-0.07 0.41-0.14 0.75-0.26 1.51-0.52 0.75-0.26 1.51-0.53 1.09-0.39 2.22-0.79 0.06-0.02 0.12-0.04 0.27-0.1 0.54-0.2 0.53-0.19 1.07-0.38 0.5-0.18 0.99-0.36 0.47-0.17 0.95-0.35 0.31-0.12 0.63-0.23 0.77-0.29 1.55-0.58 0.37-0.14 0.74-0.28 0.11-0.04 0.22-0.09 2.48-0.93 5.02-1.94 0.38-0.14 0.75-0.29 1.01-0.41 2.03-0.81 0.79-0.34 1.57-0.65 0.83-0.34 1.68-0.69 0.83-0.36 1.67-0.71 0.23-0.1 0.46-0.2 1.06-0.45 2.12-0.91 0.37-0.16 0.73-0.32 0.3-0.13 0.59-0.26 1.31-0.58 2.62-1.18 0.1-0.04 0.19-0.08 0.04-0.02 0.08-0.04 3.27-1.49 6.48-3.07 0.04-0.02 0.08-0.04 0.15-0.07 0.29-0.15 3.96-1.95 7.72-4.02 0-0.01 0.02-0.01 0-0.02 0.03-0.02 1.38-0.77 2.72-1.55 0.11-0.06 0.21-0.12c4.07-2.38 7.87-4.85 11.23-7.42q1.44-1.09 2.75-2.21 0.72-0.59 1.39-1.2 2.71-2.4 4.78-4.9 0.53-0.62 1-1.26 0.49-0.62 0.91-1.26 0.03-0.02 0.03-0.03 0.42-0.62 0.79-1.23 0.37-0.62 0.7-1.24 0.03-0.04 0.04-0.08 0.34-0.62 0.61-1.24c1.73-3.86 3.16-8.58 4.37-13.86q0 0 0 0 0.01-0.03 0.01-0.06c1.37-6.01 2.44-12.77 3.28-19.96q0.01-0.02 0.01-0.05 0.2-1.71 0.38-3.46 0.02-0.16 0.04-0.32 0.18-1.73 0.34-3.48 0.01-0.09 0.02-0.17c2.37-25.34 2.44-54.04 3.3-72.12q0.01-0.21 0.02-0.42 0.06-1.22 0.12-2.37 0.02-0.31 0.04-0.6 0.06-1.09 0.13-2.12 0.02-0.27 0.04-0.54 0.09-1.26 0.19-2.4c1.09-11.2 8.39-30.83 16.08-49.62 0.08-0.06 0.08-0.06 0.08-0.06 9.83-23.75 17.4-43.36 17-45.86-0.71-4.42-19.82-9.84-38.89-5.78-19.02 4.06-39.68 43.29-40.87 51.67-1.25 8.3 12.7 46.3 12.7 46.3l-5.99 24.91-20.81 2.02q0.01 0 0.02 0l0.09-22.78q-0.01 0-0.02 0v-0.01c0.05-10.84 0.02-24.95 0.05-41.03v-0.07c-0.05-41.47-0.26-96.18-1.46-142.24l-0.02-2.8c-0.87-35.59-2.17-65.75-4.22-80.06 0.21-5.4-18.18-13.83-35.79-1.8-21.01 14.36-14.24 109.46-6.95 122.21q-0.18-0.05-0.28-0.08c0.56 2.5 0.86 3.98 0.86 3.98l-0.84 17.23-3.59 73.99 0.55 0.1-0.02 0.41-7.96-0.3c0 0-3.46-63.9-8.44-131.22v-0.06c-3.49-47.87 4.62-96.79 0.15-126.45-1.72-9.99-17.01-16.75-33.44-6.25q-2.44 1.57-4.36 3.11-0.94 0.61-1.69 1.33 0 0-0.1 0.19c-9.9 8.9-8.33 17.23-9.37 25.36q-0.25-0.13-0.54-0.25 0-0.26 0-0.26-0.03 0.11-0.07 0.23c-6.52-2.73-24.79-2.74-28.03 9.57 0 0-6.05 18.73-8.22 47.43q-0.02 0.16-0.04 0.32-0.05 0.32-0.06 0.63-0.02 0.2-0.03 0.39v0.07c-0.5 7.64-0.74 15.86-0.42 24.17 0.07 0.07 0.07 0.07 0 0.13q0.07 1.48 0.16 2.97-0.4-1.75-0.7-3.48c0.49 11.62 2.12 23.63 5.42 35.24l-0.16 3.89-4.6 108.83 0.56 0.02-0.02 0.49-0.02 0.37-19.24-1.11c0 0-0.04-38.41-0.11-78.12v-0.05q-0.01-3.24-0.01-6.48c-0.02-8.5-0.03-16.97-0.05-25.05l-0.06-0.02c-0.01-15.19-0.07-28.96-0.1-38.92 0.12-13.56-37.15-9.23-41.34 9.13-1.75 4.92-2.94 29.69-3.09 47.86-0.18 18.22 7.66 35.95 7.66 35.95z"/>
						<g id="&lt;Group&gt;">
							<path id="&lt;Compound Path&gt;" class="s1" d="m181.52 312.77c-0.01 0.22-0.56 22.45-0.2 49.95l0.01 0.3q0.01 0.47 0.01 0.98c0 0.57 0 1.15 0.01 1.55 0.72 53.26 4.04 88.31 9.88 104.16l2.94 4.11 42.45 34.58c2.93 24.4 18.89 157.98 21.77 195.38q0.21 2.75 0.43 5.47l19.17-0.07q-0.27-3.41-0.54-6.87c-3.19-41.42-21.53-193.57-22.31-200.03l-3.46-6.27-43.3-35.26c-4.48-14.86-7.28-48.49-7.92-95.65q-0.01-0.57-0.01-1.09 0.01-0.86-0.02-1.67c-0.35-27.06 0.19-48.87 0.2-49.34l-0.14-80.02-0.81-3.84c-0.07-0.16-6.88-15.87-6.71-31.43 0.16-20.47 1.48-40.51 2.48-43.97l0.31-1.07c0.61-2.65 3.63-5.35 8.08-7.2 5.56-2.31 11.11-2.43 13.72-1.85l0.02 7.34c0.03 8.36 0.06 18.28 0.07 28.9l0.06 0.09 0.04 24.6 0.01 6.41c0.07 39.05 0.12 76.83 0.12 76.84l9.01 9.53 18.92 1.09 10.11-9.19 0.03-0.79-0.52-0.57 4.65-110.34-0.35-3.01c-2.55-8.94-4.16-18.72-4.8-29.11l0.5-0.07-0.03-0.38q-0.04-0.84-0.09-1.68l0.03-0.06-0.04-0.08q-0.01-0.29-0.02-0.58l-0.22 0.01-0.03-0.08 0.25-0.01c-0.27-7.06-0.14-14.51 0.4-22.8l0.11-1.28h0.01c2.02-26.6 7.6-44.28 7.65-44.44l0.15-0.51c0.13-0.49 0.37-1.41 2.23-2.33 3.95-1.95 10.37-1.55 12.41-0.69l12.4-6 0.5-0.25-0.75-0.23 1.62-0.85c0.21-1.68 0.34-3.38 0.45-5.08 0.4-5.89 0.64-9.45 5.68-13.98l0.3-0.39 0.01 0.01q0.01-0.03 0.29-0.22l0.71-0.52q1.59-1.26 3.5-2.48c8.34-5.33 14.06-3.52 15.62-2.83 1.69 0.75 2.58 1.82 2.67 2.35 2.07 13.72 1.19 32.35 0.17 53.92-1 21.42-2.15 45.7-0.4 69.67v0.14c4.83 65.35 8.25 128.25 8.29 128.88l9.18 9.03 7.83 0.3 9.92-9.11 0.02-0.41-0.52-0.65 4.33-89.15-0.17-2.33c0 0-0.31-1.54-0.89-4.14l-3.33 0.75 2.59-3.29c-2.01-3.84-5.86-26.85-5.78-55.36 0.1-36.16 6.38-49.99 9.69-52.25 9.02-6.17 17.51-4.46 20.6-2.93 1.61 12.76 2.89 38.22 3.8 75.64l0.03 2.92c1.16 44.69 1.38 98.07 1.44 139.61l-0.01 0.11c-0.01 6.74-0.01 13.12-0.01 19.06-0.01 7.99-0.01 15.16-0.04 21.37l0.03 0.02-0.1 22.31 9.1 0.04 0.48 9.56 0.88-0.1 0.01 0.05 20.47-1.99 8.37-7.28 5.89-24.5-0.33-5.52c-5.88-16.02-12.05-36.17-11.98-40.98 1.63-8.1 20.09-40.06 32.71-42.76 10.4-2.21 20.08-0.98 25.34 0.49-1.79 5.25-5.77 15.94-14.61 37.25l-0.1 0.15c-10.42 25.44-15.5 41.33-16.49 51.57-0.08 0.81-0.15 1.67-0.2 2.43l-0.04 0.65q-0.08 1.09-0.14 2.17l-0.19 3.47c-0.27 5.67-0.46 12.43-0.66 19.59-0.46 15.99-0.98 34.12-2.57 51.07q-0.15 1.68-0.33 3.33l-0.03 0.33q-0.17 1.64-0.36 3.25l-0.01 0.08c-0.84 7.13-1.86 13.4-3.04 18.57l-0.03 0.11c-1.1 4.84-2.35 8.83-3.65 11.75q-0.12 0.27-0.26 0.54l-0.16 0.31c-0.14 0.26-0.28 0.5-0.38 0.68q-0.25 0.4-0.51 0.79l-0.14 0.2q-0.21 0.31-0.46 0.62l-0.19 0.26c-0.16 0.22-0.32 0.42-0.61 0.76q-1.49 1.8-3.72 3.79c-0.34 0.31-0.68 0.61-1.16 1q-1.08 0.92-2.32 1.87c-2.85 2.17-6.24 4.4-10.02 6.61l-0.24 0.14q-1.08 0.63-2.18 1.25l-0.37 0.2c-2.21 1.22-4.63 2.48-7.2 3.76l-0.36 0.17q-3.02 1.49-6.12 2.91l-0.25 0.11q-1.22 0.56-2.51 1.12l-3.26 1.42 3.6 8.85-4.02-8.67-3.56 1.48q-0.6 0.25-1.21 0.5l-2.58 1.03q-2.43 0.96-4.8 1.85l-2.94 1.11c-0.39 0.14-0.77 0.28-0.95 0.35l-11.89 4.15c-3.11 1.03-5.85 1.89-8.13 2.6l-0.81 0.25q-3.78 1.14-5.59 1.66l-0.52 0.14-7.02 7.43q-0.27 1.38-0.47 2.76l-0.17 1.09q-0.17 1-0.3 2.01-0.22 1.71-0.37 3.39l-0.05 0.48q-0.07 0.65-0.12 1.25c-0.11 1.36-0.18 2.74-0.26 4.36-0.01 0.3-0.03 0.6-0.04 0.82-0.06 1.72-0.09 3.45-0.08 5.06 0 0.51 0 1.06 0.01 1.5q0 0.76 0.04 1.57 0.01 0.85 0.07 1.73l0.25 4q0.13 1.59 0.29 3.29l1.19 10.35q0.44 3.38 0.97 7.01l0.43 2.88c0.07 0.51 0.15 1.03 0.21 1.37 0.17 1.17 0.35 2.33 0.53 3.4 0.25 1.7 0.53 3.42 0.8 5.02l0.93 5.55c0.35 2.32 4.26 30.14 8.03 57.05 6.65 47.38 9.67 68.81 10.54 74.8l19.35-0.07q-0.12-0.69-0.25-1.37c-0.34-2.13-6.09-43.1-10.71-76.02-5.5-39.22-7.93-56.52-8.11-57.57l-0.91-5.41c-0.27-1.63-0.53-3.26-0.8-4.99-0.18-1.07-0.34-2.11-0.52-3.33l-0.61-4.07q-0.5-3.46-0.92-6.71l-1.12-9.68q-0.14-1.58-0.26-3.03l-0.24-3.86q-0.03-0.44-0.03-0.88l-0.02-0.34c-0.01-0.26-0.01-0.52-0.01-0.86-0.01-0.41-0.02-0.81-0.01-1.29q-0.01-2.21 0.07-4.42l0.04-0.91q0.07-1.7 0.21-3.44l0.14-1.42q0.08-0.89 0.18-1.77 0.45-0.14 0.92-0.28l0.74-0.23q3.62-1.11 8.55-2.74l3.95-1.33-3.09-9.05 3.52 8.9 12.11-4.37c1.67-0.63 3.36-1.28 5.25-2.03l11.57-4.84q1.35-0.6 2.7-1.21l0.27-0.12q3.34-1.53 6.62-3.14l0.38-0.19c2.83-1.4 5.52-2.8 7.98-4.16l0.5-0.28q1.22-0.69 2.38-1.35l0.25-0.15c4.5-2.63 8.55-5.31 11.99-7.93 1.09-0.82 2.13-1.67 3-2.41q0.89-0.73 1.67-1.44c2.18-1.94 4.1-3.92 5.6-5.74q0.73-0.84 1.37-1.71 0.61-0.79 1.16-1.61v0.01q0.54-0.79 1.09-1.7 0.51-0.85 0.96-1.69h-0.01c0.32-0.59 0.6-1.16 0.91-1.85 1.89-4.21 3.49-9.25 4.89-15.4l0.02-0.07c1.34-5.88 2.48-12.82 3.39-20.63l0.01-0.08c0.14-1.15 0.27-2.32 0.38-3.4l0.04-0.41c0.13-1.17 0.24-2.34 0.37-3.7 1.63-17.41 2.18-36.68 2.62-52.16 0.21-7.06 0.4-13.73 0.66-19.19l0.17-3.29q0.06-1 0.12-1.93l0.02-0.29-9.54-0.58 9.56 0.32c0.05-0.76 0.11-1.48 0.17-2.11 1.15-11.87 11.59-37.41 15.1-45.99l0.1-0.14c18.31-44.19 17.86-47.01 17.33-50.28-0.37-2.35-1.7-5.77-5.9-8.65-7.75-5.32-26.25-8.6-43.78-4.87-17.78 3.79-34.3 28.27-42.43 44.94-0.12-36.92-0.44-79.17-1.39-115.58l-0.02-2.91c-0.98-40.2-2.34-66.16-4.16-79.31-0.29-4.93-3.57-9.45-9.18-12.55-9.8-5.4-26.26-6.37-40.97 3.68q-6.28 4.31-10.39 14.09c0.79-18.16 1.12-34.07-0.88-47.34-1.25-7.25-6.41-13.53-13.82-16.8-3.88-1.71-8.06-2.55-12.36-2.53-7 0.03-14.34 2.31-21.28 6.75q-2.55 1.63-4.78 3.38-1.44 0.98-2.64 2.13l-0.2 0.27c-7.75 7.11-10.13 14.32-11.05 20.49-5.48-0.1-11.5 0.84-16.61 3.37-6.24 3.08-10.45 8.04-12.19 14.36-0.76 2.43-6.32 20.92-8.43 48.43q-0.07 0.54-0.11 1.08-0.02 0.29-0.04 0.6v0.08c-0.43 6.59-0.61 12.73-0.56 18.59-1.68-5.75-6.86-11.42-17.5-12.67-14.2-1.66-36.95 5.79-41.32 23.57-3.03 10.26-3.37 49.14-3.37 49.51-0.17 16.32 5.39 31.96 7.53 37.36zm225.58 28.94c0.03-6.13 0.04-13.32 0.04-21.33q0-1.08 0-2.18c2.15 7.04 4.61 14.15 6.71 19.99l-3.62 15.08-3.15 0.3 0.05-11.82zm-170.22-130.74l-0.05-31.12-0.06-0.09c-0.01-8.42-0.03-16.39-0.05-23.5 0.91 7.67 2.31 15.02 4.2 21.97l-3.94 93.51c-0.02-14.63-0.06-37.47-0.1-60.77z"/>
							<path id="&lt;Path&gt;" class="s1" d="m382.5 80.74l-0.06-1.27q-0.02 0.68 0.06 1.27z"/>
							<path id="&lt;Path&gt;" class="s1" d="m236.75 116.77q0-0.01 0-0.01 0 0 0 0.01z"/>
							<path id="&lt;Path&gt;" class="s1" d="m236.72 117.25l0.02-0.29q0-0.1 0.01-0.19c0 0.06-0.02 0.27-0.03 0.48z"/>
							<path id="&lt;Path&gt;" class="s1" d="m217.55 141.65v-0.05q0 0.02 0 0.05z"/>
							<path id="&lt;Path&gt;" class="s1" d="m480.34 248.44h-0.03z"/>
							<path id="&lt;Path&gt;" class="s1" d="m397.56 341.71h-0.02z"/>
						</g>
						<g id="&lt;Group&gt;">
							<path id="&lt;Path&gt;" class="s2" d="m191.07 313.01c0 0-0.55 21.94-0.19 49.59 0.03 0.87 0 1.81 0.03 2.82 0.5 36.87 2.56 82.71 9.29 100.99l45.45 37.02c0 0 19.06 157.93 22.27 199.61 0.15 2.02 0.32 4.11 0.49 6.18l107.23-0.43c-0.9-5.81-18.42-131.15-18.8-133.42q-0.03-0.19-0.07-0.38-0.4-2.43-0.8-4.82-0.44-2.61-0.84-5.21-0.28-1.68-0.52-3.33-0.13-0.84-0.25-1.66-0.64-4.15-1.15-8.05-0.29-2.14-0.53-4.17-0.3-2.36-0.53-4.56-0.15-1.38-0.27-2.68-0.2-2.12-0.35-4.04-0.11-1.57-0.17-2.98-0.05-0.75-0.06-1.46-0.04-0.71-0.03-1.36-0.02-0.67-0.01-1.28c-0.03-6.53 0.43-13.11 1.68-19.46q0.01 0 0.74-0.2 0.17-0.06 0.39-0.13c2.2-0.62 7.53-2.19 14.56-4.52q1.57-0.53 3.25-1.09 0.41-0.15 0.82-0.29 0.85-0.29 1.72-0.58 1.84-0.66 3.78-1.35 1.27-0.45 2.56-0.92 0.46-0.17 0.93-0.34 1.43-0.52 2.87-1.08 2.91-1.09 5.9-2.28 0.99-0.4 2-0.8 0.77-0.33 1.54-0.64 0.82-0.33 1.65-0.67 0.82-0.35 1.65-0.7 1.63-0.7 3.25-1.41 0.86-0.37 1.7-0.76 0.83-0.37 1.65-0.74 3.3-1.5 6.53-3.09 0.82-0.41 1.61-0.81 0.81-0.39 1.59-0.81 0.8-0.41 1.59-0.82 1.56-0.84 3.1-1.68 0.01-0.01 0.03-0.01 1.36-0.76 2.69-1.53 1.65-0.96 3.21-1.93 1.44-0.9 2.81-1.79 2.76-1.82 5.22-3.7 1.42-1.07 2.71-2.17 0.71-0.58 1.37-1.18 2.66-2.36 4.7-4.82 0.53-0.61 0.98-1.24 0.48-0.61 0.9-1.24 0.02-0.01 0.03-0.03 0.41-0.6 0.77-1.21 0.37-0.61 0.7-1.22 0.02-0.04 0.03-0.07 0.33-0.61 0.61-1.23c12.06-26.97 9.86-94.92 12.08-119.94 1.07-11.02 8.25-30.33 15.82-48.81 0.07-0.06 0.07-0.06 0.07-0.06 9.68-23.36 17.12-42.65 16.73-45.1-0.7-4.36-19.49-9.68-38.25-5.69-18.71 3.99-39.03 42.58-40.21 50.82-1.23 8.17 12.49 45.55 12.49 45.55l-5.89 24.5-20.47 1.99 0.09-22.42c0.05-10.66 0.02-24.54 0.05-40.36l0.01-0.06c-0.06-40.8-0.27-94.61-1.45-139.92-0.05-0.5-0.03-0.95-0.02-1.32-0.02-0.95 0-1.45 0-1.45-0.85-35-2.13-64.67-4.14-78.75 0.2-5.31-28.79-10.13-33.57 0.05-3.26 6.95-10.9 51.98-13.68 67.19-2.24 12.35 3.32 41.13 5.46 51.63 0.55 2.47 0.84 3.92 0.84 3.92l-4.36 89.73-7.84-0.3c0 0-3.4-62.85-8.3-129.07v-0.06c-3.43-47.09-1.94-93.09-6.33-122.26-1.69-9.82-24.7-11.25-32.37-3.91 0 0-8.11 15.76-9.31 25.13-5.82-2.94-24.88-3.37-28.18 9.14 0 0-5.94 18.43-8.08 46.66-0.01 0.19-0.09 0.38-0.03 0.57-0.08 0.25-0.09 0.5-0.1 0.75v0.06c-0.49 7.52-0.73 15.6-0.41 23.78 0.07 0.07 0.07 0.07 0 0.13 0.48 11.43 2.08 23.24 5.33 34.67l-4.68 110.87-0.02 0.37-18.92-1.1c0 0-0.08-60.84-0.17-107.9l-0.06-0.03c-0.02-14.94-0.07-28.48-0.1-38.28-0.21-6.55-36.9-1.69-40.66 8.98-1.73 4.85-2.9 29.21-3.04 47.08-0.19 17.92 7.53 35.36 7.53 35.36z"/>
							<path id="&lt;Path&gt;" class="s3" d="m473.05 292.04c0 0 0 0-0.07 0.06-7.57 18.48-14.75 37.79-15.82 48.81-1.91 21.5-0.55 74.65-7.79 106.31-10.05-37.37-51.92-83.11-51.92-83.11l20.47-1.99 5.89-24.5c0 0-13.72-37.38-12.49-45.55 1.18-8.24 21.5-46.83 40.21-50.82 18.76-3.99 37.55 1.33 38.25 5.69 0.39 2.45-7.05 21.74-16.73 45.1z"/>
							<path id="&lt;Path&gt;" class="s4" d="m227.44 287.78l-36.37 25.23-0.14-80.02c0 0-7.71-17.44-7.52-35.36 0.14-17.87 1.9-42.1 3.04-47.08 4.11-18.06 40.78-22.31 40.66-8.98-0.08 9.8 0.08 23.34 0.1 38.28l0.06 0.03c0.09 47.06 0.17 107.9 0.17 107.9z"/>
							<path id="&lt;Path&gt;" class="s5" d="m245.73 142.84c-0.31-8.18-0.08-16.26 0.41-23.78v-0.06c0.01-0.25 0.02-0.5 0.1-0.75-0.06-0.19 0.02-0.38 0.03-0.57 2.14-28.23 8.08-46.66 8.08-46.66 3.3-12.51 22.36-12.08 28.18-9.14 1.2-9.37-1.14-19 15.27-29.49 16.16-10.34 31.2-3.68 32.89 6.14 4.39 29.17-3.58 77.3-0.15 124.39v0.06c4.9 66.22 8.3 129.07 8.3 129.07l-92.46-3.54 4.68-110.87c-3.25-11.43-4.85-23.24-5.33-34.67 0.07-0.06 0.07-0.06 0-0.13z"/>
							<path id="&lt;Path&gt;" class="s6" d="m350.2 198.7c-7.26-10.7-14.34-106.34 6.58-120.63 17.32-11.84 35.41-3.55 35.21 1.76 2.01 14.08 3.29 43.75 4.14 78.75 0 0-0.02 0.5 0 1.45-0.01 0.37-0.03 0.82 0.02 1.32l0.01 0.33c1.18 45.24 1.37 98.89 1.44 139.59l-0.01 0.06-50.91-8.98 4.36-89.73c0 0 0.62-1.76-0.84-3.92z"/>
							<path id="&lt;Path&gt;" fill-rule="evenodd" class="s7" d="m299.54 419.61c0 0 47.23-44.89 97.93-55.5l0.09-22.4c0 0-120.26-24.58-159.59 1.11 0 0 2.55 41.43 12.63 55.42 10.08 13.98 48.94 21.37 48.94 21.37z"/>
							<path id="&lt;Path&gt;" fill-rule="evenodd" class="s8" d="m396.13 160.03c-0.02-0.95 0-1.45 0-1.45l0.02 2.77c-0.05-0.5-0.03-0.95-0.02-1.32z"/>
							<path id="&lt;Path&gt;" fill-rule="evenodd" class="s9" d="m397.07 300.76v0.06l-43.33-7.64h-0.05l-7.54-1.33 3.54-72.78 0.82-16.96c0 0-0.29-1.45-0.84-3.91 1.69 0.5 23.12 6.41 34.73 4.84 9.98-1.35 11.12-31.84 11.23-41.87z"/>
							<path id="&lt;Path&gt;" fill-rule="evenodd" class="s10" d="m338.32 291.55l-92.47-3.54 4.52-107.05 0.16-3.83c-3.25-11.42-4.85-23.23-5.33-34.66 1.32 7.82 4.18 16.28 10.2 23.74l25.57-5.68c0 0-4.26-82.77 1.03-99.15 0 0-1.12 62.68 5.89 99.42 0 0 26.35 23.67 42.13 1.68 0.99 13.45 1.93 26.76 2.78 39.44 3.36 49.72 5.52 89.63 5.52 89.63z"/>
							<path id="&lt;Path&gt;" fill-rule="evenodd" class="s11" d="m246.27 117.69c-0.09 0.43-0.1 0.87-0.12 1.31 0.18-1.06 0.35-1.81 0.43-2.12z"/>
							<path id="&lt;Path&gt;" fill-rule="evenodd" class="s9" d="m227.44 287.78l-7.62 5.29v0.01l-28.75 19.93-0.14-80.02 20.3 0.66 15.98-53.8 0.06 0.03c0.02 9.95 0.03 20.53 0.06 31.01l-0.01 0.05c0.07 39.06 0.12 76.84 0.12 76.84z"/>
							<path id="&lt;Path&gt;" fill-rule="evenodd" class="s12" d="m397.47 364.11c0 0-56.24 10.25-87.44 46.4 0 0 22.78-47.38 87.53-68.8z"/>
							<path id="&lt;Path&gt;" class="s7" d="m376.56 708.79c-10.12-62.69-25.42-165.2-25.3-179.4-0.03-6.13 0.37-12.3 1.46-18.27q0.1-0.6 0.22-1.19c0 0 53.11-14.64 79.34-34.67-30.99 12.61-70.36 26.89-82.88 25.56q-2.06-0.2-3.53 0.67c-2.64 1.55-3.97 5.55-4.35 11.21-1.38 21.27 20.14 132.11 33.23 196.1z"/>
							<path id="&lt;Path&gt;" class="s13" d="m432.28 475.26c-26.23 20.03-79.34 34.67-79.34 34.67-0.08 0.39-7.07-8.43-7.07-8.43v-0.01q1.47-0.87 3.53-0.67c12.52 1.33 51.89-12.95 82.88-25.56z"/>
							<path id="&lt;Path&gt;" class="s14" d="m280.03 458.23c-3.35 10.28 80.64 13.29 118.85-4.6 26.59-12.46 24.43-22.08 23.95-27.64-0.49-5.56-16.31-35.53-41.5-35.69-25.2-0.16-91.74 38.49-101.3 67.93z"/>
							<path id="&lt;Path&gt;" class="s15" d="m336.49 301.33c2.53-4.78-65.84-8.69-98.86-4.18-17.49 2.39-46.76 33.77-29.37 33.71 25.03-0.09 120.98-15.86 128.23-29.53z"/>
							<path id="&lt;Path&gt;" class="s16" d="m377.61 487.38c0 0 31.94-9.29 37.85-12.52 5.9-3.23 22.67-9.64 24.72-17.22 2.06-7.57 9.68-64.71 9.68-64.71 0 0-10.41 55.39-16.19 65.64-5.79 10.25-56.06 28.81-56.06 28.81z"/>
							<path id="&lt;Path&gt;" class="s16" d="m282.09 709.16c-11.51-72.77-26.17-193.05-26.17-193.05 0 0 10.67 118.42 19.15 193.08z"/>
							<path id="&lt;Path&gt;" class="s16" d="m203.96 383.51c0 0-4.17 49.37 0.22 66.02 4.38 16.64 28.5 31.45 28.5 31.45 0 0-16.86-14.17-22.43-37.05-5.58-22.89-6.29-60.42-6.29-60.42z"/>
							<path id="&lt;Path&gt;" class="s17" d="m389.01 82c0 0-24.25 5.21-36.88 13.95 0 0 4.44-12.69 13.88-16.56 9.45-3.88 23 2.61 23 2.61z"/>
							<path id="&lt;Path&gt;" class="s16" d="m351.19 102.94c0 0-1.94 58.95 8.49 89.61 0 0-12.04-26.61-13.35-53.26-1.31-26.65 4.86-36.35 4.86-36.35z"/>
							<path id="&lt;Path&gt;" class="s17" d="m221.56 141.45c0 0-19.02 4.09-28.92 10.94 0 0 3.65-9.64 10.88-12.99 10.04-4.63 20.47 0.57 18.04 2.05z"/>
							<path id="&lt;Path&gt;" class="s16" d="m191.9 157.88c0 0-1.53 46.22 6.66 70.27 0 0-9.44-20.87-10.47-41.77-1.03-20.9 3.81-28.5 3.81-28.5z"/>
							<path id="&lt;Path&gt;" class="s17" d="m325.43 37.68c0 0-24.7 6.48-37.46 14.54 0 0 4.37-11.84 13.95-15.38 9.57-3.55 23.51 0.84 23.51 0.84z"/>
							<path id="&lt;Path&gt;" class="s17" d="m279.8 62.84c-2.31-0.38-4.66-0.55-6.85-0.35-9.3 0.85-14.97 8.78-14.97 8.78 5.75-1.61 13.65-2.54 20.63-3.08q0.31-2.75 1.19-5.35z"/>
							<path id="&lt;Path&gt;" class="s16" d="m258.43 75.84c0 0-8.36 53.04-4.69 83.77 0 0-5.48-26.79-2.71-53.18 2.77-26.38 7.4-30.59 7.4-30.59z"/>
							<path id="&lt;Path&gt;" class="s17" d="m481.71 249.32c0 0-19.91-3.76-32.25-2.41 0 0 11.21-5.12 19.57-4.67 8.36 0.45 12.68 7.08 12.68 7.08z"/>
							<path id="&lt;Path&gt;" class="s16" d="m479.86 253.78c0 0-19.71 41.54-40.02 58.61 0 0 20.25-13.63 31.08-31.54 10.84-17.91 8.94-27.07 8.94-27.07z"/>
							<path id="&lt;Path&gt;" class="s16" d="m368.93 708.82c-11.63-76.47-27.88-198.68-27.88-198.68-2.41 39.02 14.38 135.98 26.34 198.69z"/>
							<path id="&lt;Path&gt;" fill-rule="evenodd" class="s18" d="m288.73 196.59l6.18 93.78-6.83-0.26c5.79-25.32 1.18-57.15 0.65-93.52z"/>
							<path id="&lt;Path&gt;" fill-rule="evenodd" class="s12" d="m288.73 196.59l6.18 93.78-25.12-0.96c1.29-5.68 13.05-12.39 13.05-12.39l1.16-121.35z"/>
							<path id="&lt;Path&gt;" fill-rule="evenodd" class="s12" d="m369.9 296.45l-15.68-2.76-7.54-1.34 4.36-89.73c2.99 40.64 5.21 83.45 18.86 93.83z"/>
							<path id="&lt;Path&gt;" fill-rule="evenodd" class="s12" d="m227.32 210.94c0.07 39.06 0.12 76.84 0.12 76.84l-7.62 5.29c3.75-21.23 5.85-50.59 7.5-82.13z"/>
							<path id="&lt;Path&gt;" fill-rule="evenodd" class="s12" d="m259.06 289l-12.68-0.49 4.52-107.05c0.49 38.53 3.05 74.56 8.16 107.54z"/>
							<path id="&lt;Path&gt;" class="s19" d="m245.65 503.43c0 0 19.06 157.93 22.27 199.61 0.15 2.02 0.32 4.11 0.49 6.18l107.23-0.43c-0.9-5.81-18.42-131.15-18.8-133.42q-0.03-0.19-0.07-0.38-0.4-2.43-0.8-4.82-0.44-2.61-0.84-5.21-0.26-1.67-0.52-3.33-0.12-0.84-0.25-1.66-0.64-4.15-1.15-8.05-0.28-2.13-0.53-4.17-0.3-2.36-0.53-4.56-0.15-1.38-0.27-2.68-0.2-2.12-0.35-4.04-0.11-1.57-0.17-2.98-0.05-0.75-0.06-1.46-0.04-0.71-0.03-1.36-0.02-0.67-0.01-1.28c-0.03-6.53 0.43-13.11 1.68-19.46q0.01 0 0.74-0.2 0.17-0.06 0.39-0.13c2.2-0.62 7.53-2.19 14.56-4.52q1.57-0.53 3.25-1.09 0.41-0.15 0.82-0.29 0.85-0.29 1.72-0.58 1.84-0.66 3.78-1.35 1.27-0.45 2.56-0.92 0.46-0.17 0.93-0.34 1.43-0.52 2.87-1.08 2.91-1.09 5.9-2.28 0.99-0.4 2-0.8 0.77-0.33 1.54-0.64 0.82-0.33 1.65-0.67 0.82-0.35 1.65-0.7 1.63-0.7 3.25-1.41 0.86-0.37 1.7-0.76 0.83-0.37 1.65-0.74 3.3-1.5 6.53-3.09 0.82-0.41 1.61-0.81 0.81-0.39 1.59-0.81 0.8-0.41 1.59-0.82 1.56-0.84 3.1-1.68 0.01-0.01 0.03-0.01 1.36-0.77 2.69-1.53 1.65-0.96 3.21-1.93 1.44-0.9 2.81-1.79 2.76-1.82 5.22-3.7 1.42-1.07 2.71-2.17 0.71-0.58 1.37-1.18 2.66-2.36 4.7-4.82 0.53-0.61 0.98-1.24 0.48-0.61 0.9-1.24 0.02-0.01 0.03-0.03 0.41-0.6 0.77-1.21 0.37-0.61 0.7-1.22 0.02-0.04 0.03-0.07 0.33-0.61 0.61-1.23c12.06-26.97 9.86-94.92 12.08-119.94 1.07-11.02 8.25-30.33 15.82-48.81-1.61 1.57-27.11 26.02-31.72 25.97-4.73-0.06-26.06-12.67-29.94-26-1.23 8.17 12.49 45.55 12.49 45.55l-5.89 24.5-20.47 1.99c0 0 39.72 41.39 28.54 84.42 0 0-66.46 27.88-128.44 23.17-61.97-4.69-95.57-29.58-95.57-29.58 0 0-10.26-49.93-11.07-76.7 0.5 36.87 2.56 82.71 9.29 100.99z"/>
							<path id="&lt;Path&gt;" fill-rule="evenodd" class="s12" d="m338.32 291.55l-36.53-1.4c1.27-1.97 19.56-6.44 19.56-6.44l7.61-27.67 3.84-54.12c3.36 49.72 5.52 89.63 5.52 89.63z"/>
						</g>
					</g>
				</g>
			</g>
		</g>
	</g>
</svg>