<svg xmlns="http://www.w3.org/2000/svg" version="1.2" viewBox="271.33 16.03 436.21 688.15">
	<defs>
		<radialGradient id="g1" cx="0" cy="0" r="1" gradientUnits="userSpaceOnUse" gradientTransform="matrix(2185.263,0,0,2185.263,446.533,-430.693)">
			<stop offset=".006" stop-color="#e7e5f0"/>
			<stop offset="1" stop-color="#8e75a0"/>
		</radialGradient>
		<linearGradient id="g2" x2="1" gradientUnits="userSpaceOnUse" gradientTransform="matrix(3.376,-237.69,-183.732,-2.609,547.814,266.466)">
			<stop offset="0" stop-color="#ff8777"/>
			<stop offset=".984" stop-color="#ffb880"/>
		</linearGradient>
		<linearGradient id="g3" x2="1" gradientUnits="userSpaceOnUse" gradientTransform="matrix(9.049,-637.221,-1069.003,-15.181,1031.368,706.916)">
			<stop offset=".016" stop-color="#ffb880"/>
			<stop offset="1" stop-color="#ff8777"/>
		</linearGradient>
		<linearGradient id="g4" x2="1" gradientUnits="userSpaceOnUse" gradientTransform="matrix(-290.541,-4.126,-2.007,141.35,670.619,219.363)">
			<stop offset="0" stop-color="#ec4400"/>
			<stop offset="1" stop-color="#000000"/>
		</linearGradient>
	</defs>
	<style>
		.s0 { opacity: .8;mix-blend-mode: multiply;fill: url(#g1) } 
		.s1 { fill: #ffffff } 
		.s2 { fill: url(#g2) } 
		.s3 { fill: url(#g3) } 
		.s4 { opacity: .31;mix-blend-mode: multiply;fill: #d87290 } 
		.s5 { opacity: .97;mix-blend-mode: soft-light;fill: #f5af8f } 
		.s6 { opacity: .5;mix-blend-mode: multiply;fill: #d87290 } 
		.s7 { opacity: .3;mix-blend-mode: multiply;fill: #d87290 } 
		.s8 { opacity: .6;mix-blend-mode: multiply;fill: #f3bac0 } 
		.s9 { fill: #e86c7c } 
		.s10 { opacity: .97;mix-blend-mode: soft-light;fill: #f5d3d2 } 
		.s11 { opacity: .97;mix-blend-mode: soft-light;fill: #f5ee8f } 
		.s12 { mix-blend-mode: screen;fill: url(#g4) } 
		.s13 { fill: #ab3d52 } 
		.s14 { opacity: .97;mix-blend-mode: soft-light;fill: #f5ffff } 
		.s15 { opacity: .97;mix-blend-mode: soft-light;fill: #f5a995 } 
	</style>
	<g id="Layer 1">
		<g id="&lt;Group&gt;">
			<g id="&lt;Clip Group&gt;">
				<g id="&lt;Group&gt;">
					<path id="&lt;Path&gt;" class="s0" d="m304.11 426.98c9.42 15.06 33.3 40.91 37.36 56.4 3.35 12.77-5.88 160.93-5.25 220.8h200.92c-5.79-58.68-31.94-193.29-14.38-213.75 22.04-25.69 146.77-92.44 148.23-115.53 1.45-23.09 3.89-69.7 8.41-104.89 4.53-35.19 14.69-74.88 0-91.21-14.7-16.34-72.23-34.02-79.87-38.81-7.64-4.78-14.78-79.16-53.43-81.64-38.65-2.47-59.94 28.36-66.35 29.72-6.42 1.35-20.96-6.23-41.63-0.59-20.67 5.63-29.55 25.84-47.66 30.12-52.07 12.28-53.18 42.76-60.55 53.09-7.37 10.32-38.27 16.3-47.24 36.41-8.96 20.1-16.34 45.02-7.05 79.35 9.28 34.32 19.08 125.47 28.49 140.53z"/>
					<path id="&lt;Compound Path&gt;" class="s1" d="m290.33 198.7c0.03 1.16 0.08 2.43 0.16 3.7l0.01 0.28q0.14 2.3 0.34 4.56 0.13 1.31 0.25 2.5l0.06 0.56c0.27 2.69 0.62 5.39 1.07 8.26 2.52 16.98 6.86 30.21 8.34 34.43q0.07 0.25 0.14 0.48c1.82 12.18 15.73 103.99 26.27 132.49 1.12 3.1 2.31 5.66 3.6 7.74 5.82 9.54 14.9 19.16 22.91 27.64 4.99 5.28 12.42 13.15 14.08 16.44 0.76 7.13 0.29 40.76-0.17 73.31-0.85 59.58-1.89 133.72 1.4 172.84l5.54 9.54c0.84 0.58 8.93 5.96 24.62 10.71h117.01c8.29-1.85 16.93-4.05 25.99-6.74l9.13-13.88c-12.08-101.91-22.75-215.25-20.11-231.9 9.5-16.17 69.67-57.14 110.57-81.8 32.51-15 55.16-42.87 57.55-60.21 0.95-6.82 0.46-22.49-0.41-47.5l-0.29-8.18c-0.46-13.42-0.94-30.11-0.49-40.16 0.54-12.39 3.52-27.69 5.91-39.98 2.85-14.63 4.3-22.54 3.51-28.25-0.5-3.65-1.87-7.66-4.08-11.91-4.08-9.06-9.23-15.55-15.33-19.34q-2.45-2.06-4.74-3.41c-3.94-2.34-11.45-4.64-31.9-10.64-10.04-2.94-21.15-6.2-31.78-9.59-0.38-4.82-0.77-8.42-1.16-10.89-3.63-22.58-28.25-56.22-45.41-62.05-17.43-5.93-54.97 4.24-70.45 19.1-2.09 2-3.82 4.22-5.25 6.49-5.12-2.23-11.57-4.31-19.42-5.6-5.5-0.91-11.52-0.82-17.88 0.25-28.01 3.55-40.12 21.04-42.73 25.41q-1.51 2.28-2.65 4.65c-11.09 1.7-30.06 6.1-46.24 17.27-14.07 8.9-19.26 18.15-21.05 22.54q-0.14 0.25-0.28 0.5l-1.12 2.71c-0.25 0.86-1.9 7.12-1.6 17.52-41.21 16.11-49.68 39.37-51.15 44.9q-0.63 1.94-1.02 3.7c-0.69 3.14-1.2 6.58-1.49 10.21l0.2 0.01-0.43 0.06q-0.13 3.34-0.1 6.59c-0.02 1.46 0.01 2.76 0.05 4.02zm354.16 169.03q-1.1 1.03-2.37 1.77l-0.4-0.67zm-8.75 3.47l5.27-1.1c-1.67 0.76-3.51 1.16-5.4 1.15z"/>
					<path id="&lt;Path&gt;" class="s2" d="m610.69 197.17c0 0-2.15-96.98-5.1-115.32-2.95-18.34-25-47.87-36.82-51.89-11.82-4.02-44.68 4.02-57.37 16.19-6.08 5.84-7.93 15.94-7.93 15.94 0 0-8.55-8.47-27.77-11.63-19.22-3.16-48.95 10.86-51.46 29.45 0 0-48.19 2.52-65.98 34.69 0 0-2.37 8.31-0.33 22.79 0 0-47.08 14.74-53.25 42.58-6.18 27.84 8.62 70.43 8.62 70.43 0 0 54.24 23.88 161.03 9.35 106.78-14.53 136.36-62.58 136.36-62.58z"/>
					<path id="&lt;Path&gt;" class="s3" d="m341.53 386.9c10.68 17.49 35.41 37.11 38.52 47.42 3.05 10.31-3.93 182.93 1.59 248.52 0 0 49.58 34.1 156.63 2.23 0 0-25.64-216.44-19.6-237.55 0 0 0.01-0.1 0.11-0.3 6.71-21.25 86.05-74.71 116.7-88.76 0.05 0 0.05-0.05 0.1-0.05 0.05-0.05 0.1-0.05 0.1-0.05 30.7-14 49.05-38.95 50.63-50.47 0.97-6.9-0.02-30.39-0.81-53.48-0.54-15.66-0.93-31.17-0.48-41.18 1.06-24.79 10.68-57.54 9.53-65.89-1.15-8.4-11.24-21.36-17.94-25.32-5.45-3.22-40.95-12.22-69.38-21.77-6.47-2.13-12.54-4.3-17.85-6.46-28.76-11.64-60.5-31-65.99-31.43-1.82-0.13-4.8 1.96-7.85 5.42-0.05 0.05-0.15 0.15-0.26 0.25-3.2 3.57-6.47 8.5-8.89 13.81 0 0.05-0.05 0.15-0.05 0.2-2.21 4.95-3.6 10.21-3.37 15.05 0 0 0.1 0.66 0.23 1.88 2.86 17.02 33.29 60.91 84.44 70.58l22.22-3.7 0.96-0.13c0 0 2.52 26.67-0.14 31.46-0.05 0.1-0.1 0.2-0.21 0.25-5.15 5.16-79.45 22.15-136.14 62.31 0 0-99.95 4.83-144.7-4.15-0.16 0-0.26 0-0.36-0.05-3.75-0.77-7.09-1.58-9.97-2.58-0.36-0.11-0.66-0.27-1.02-0.37q-2.66-0.88-4.64-2.05-0.22-0.08-0.36-0.16c0 0 15.07 102.13 25.79 131.1 0.83 2.3 1.67 4.14 2.46 5.42z"/>
					<path id="&lt;Path&gt;" class="s4" d="m303.24 187.97c-0.08 2.03-0.11 4.12-0.08 6.1-0.02 1.32 0.01 2.54 0.04 3.81 0.07 2.65 0.23 5.29 0.45 7.84q0.13 1.38 0.27 2.7c0.26 2.85 0.63 5.54 1.05 8.19 2.37 15.95 6.46 28.46 7.87 32.44 0.25 0.87 0.44 1.33 0.44 1.33q0.14 0.08 0.36 0.16 2.13 1.1 4.64 2.05c0.36 0.1 0.66 0.26 1.02 0.37 41.4 15.73 141.27 16.55 141.27 16.55l-23.06 27.12c0 0 39.9-24.65 83.92-46.54 19.71-9.83 40.23-19.05 58.36-25.29 17.67-6.06 33.07-9.24 43.31-7.37 44.26 8.1 62.4 36.98 62.4 36.98-0.54-15.66-0.93-31.17-0.48-41.18 1.06-24.79 10.68-57.54 9.53-65.89-10.14 12.36-82.28 11.17-91.3 8.15-42.17-14.13-86.36-68.47-86.52-78.74-0.16-9.66 5.84-13.85 6.61-14.34-3.02 1.43-5.58 3.27-7.8 5.37-0.05 0.05-0.15 0.15-0.26 0.25-4.22 4.11-7.04 9.1-8.89 13.81 0 0.05-0.05 0.15-0.05 0.2-3.11 8.04-3.37 15.05-3.37 15.05 0 0 0.1 0.66 0.23 1.88 0.09 0.97 0.22 2.34 0.35 3.97 1.71 19.29 6.49 79.64-1.9 87.45-10 9.26-71.41 10.32-75.14 0.61-3.72-9.66-2.28-111.1-2.28-111.1-4.05 30.7-3.27 111.78-4.3 116.34-1.03 4.56-46.87 11.13-51.79 3.08-4.67-7.49-9.53-55.34-10.15-61.3 1 29.45 5.44 74.39 5.44 74.39-7.76 6.15-41.31 6.02-45.28 2.92-3.67-2.85-13.18-23.57-14.71-26.9q-0.21-0.46-0.2-0.46z"/>
					<path id="&lt;Path&gt;" class="s5" d="m589.38 93.79c0 0 1.73 3.58-0.1 6.76-1.82 3.19-36.88 3.06-52.89-6.21-16-9.26-9.34-30.8-9.34-30.8z"/>
					<path id="&lt;Path&gt;" class="s6" d="m639.62 160.82l-29.76 5.03 0.19 7.27c0 0 6.64-2.99 29.57-12.3z"/>
					<path id="&lt;Path&gt;" class="s7" d="m321.75 244.76l-8.47 5.62c0 0 78.41 22.97 147.29 19.13 0 0 124.81-52.11 150.11-72.33l0.14-31.46c0 0-18.7 3.24-23.18 3.83-4.48 0.6-16.78-3.33-16.78-3.33 0 0-7.82 17.42-18.13 20.48-4.24 1.26-10.64 1.32-16.94 0.82-9.03-0.74-17.9-2.69-19.91-4.25-3.52-2.59-6.91-36.23-6.91-36.23 0 0 1.6 70.21-1.09 76.58-2.63 6.42-60.76 30.29-71.77 14.07 0 0-35.1 9.52-46.27 4.68-11.16-4.83-15.21-16.48-15.21-16.48 0 0-1.84 18.27-16.01 21.32-14.18 3-26.61-1.7-32.02-7.21q-0.76-0.77-1.65-2.01c-5.64-7.6-15.68-27.06-17.01-29.72l9.7 25.6z"/>
					<path id="&lt;Path&gt;" class="s7" d="m538.27 685.07c0 0-25.64-216.44-19.6-237.55 6.1-21.05 86.16-75.06 116.91-89.11-4.39 1.21-144.77 39.82-154.38 51.02-9.82 11.45-0.33 204.84 57.07 275.64z"/>
					<path id="&lt;Path&gt;" class="s8" d="m380.05 434.32c3.05 10.31-3.93 182.93 1.59 248.52 0 0 49.58 34.1 156.63 2.23 0 0-25.64-216.44-19.6-237.55 0 0 0.01-0.1 0.11-0.3 0.05-0.15 0.14-0.32 0.19-0.48 2.06-4.84 17.29-32.2 116.51-88.28-3.73 1.11-124.31 38.08-186.97 47.66-63.73 9.66-109.44-24.64-109.44-24.64 0.83 2.3 1.67 4.14 2.46 5.42 10.68 17.49 35.41 37.11 38.52 47.42z"/>
					<path id="&lt;Path&gt;" class="s9" d="m589.38 93.79c0 0 0.62 7.58-16.83 8.6-21.2 1.24-38.18-9.38-38.18-9.38 0 0 16.97 13.95 47.24 10.28 30.27-3.66 7.77-9.5 7.77-9.5z"/>
					<path id="&lt;Path&gt;" class="s10" d="m534.73 67.26c0 0-6.74 8.86-0.36 25.75 0 0-13.4-6.79-7.32-29.47z"/>
					<path id="&lt;Path&gt;" class="s10" d="m579.62 89.06c0 0-0.91 6.38 4.75 10.79 0 0 4.77-2.43 5.01-6.06z"/>
					<path id="&lt;Path&gt;" class="s6" d="m303.24 187.97c-0.08 2.03-0.11 4.12-0.08 6.1-0.02 1.32 0.01 2.54 0.04 3.81 0.07 2.65 0.23 5.29 0.45 7.84q0.13 1.38 0.27 2.7c0.26 2.85 0.63 5.54 1.05 8.19 2.37 15.95 6.46 28.46 7.87 32.44 0.25 0.87 0.44 1.33 0.44 1.33q0.14 0.08 0.36 0.16 2.13 1.1 4.64 2.05c0.36 0.1 0.66 0.26 1.02 0.37 41.4 15.73 141.27 16.55 141.27 16.55l150.11-72.33 0.14-31.46c0 0-18.55 3.8-27.44 3.32-8.89-0.49-51.96-13.6-79.83-66.1 1.71 19.29 6.49 79.64-1.9 87.45-10 9.26-71.41 10.32-75.14 0.61-3.72-9.66-2.28-111.1-2.28-111.1-4.05 30.7-3.27 111.78-4.3 116.34-1.03 4.56-46.87 11.13-51.79 3.08-4.67-7.49-9.53-55.34-10.15-61.3 1 29.45 5.44 74.39 5.44 74.39-7.76 6.15-41.31 6.02-45.28 2.92-3.67-2.85-13.18-23.57-14.71-26.9q-0.21-0.46-0.2-0.46z"/>
					<path id="&lt;Path&gt;" class="s6" d="m586.55 92.42l3.31-31.99 2.56 21.87 8.33 1.39 3.31 15.5z"/>
					<path id="&lt;Path&gt;" class="s6" d="m443.59 242.78c0 0-12.8-30.55-17.08-51.78-4.27-21.23-5.15-61.93-5.15-61.93 0 0-2 56.35-1.43 67.17 0.57 10.82 16.19 41.46 16.19 41.46 0 0 3.65 2.86 7.47 5.08z"/>
					<path id="&lt;Path&gt;" class="s6" d="m374.65 225.91c0 0-4.97-15.65-8.12-30.69-3.16-15.05-8.6-57.83-8.6-57.83 0 0 4.85 64.42 6.83 72.49 1.99 8.07 9.89 16.03 9.89 16.03z"/>
					<path id="&lt;Path&gt;" class="s6" d="m570.85 166.2c0 0-44.19-15.59-67.3-63.26 0 0 20.66 57.68 59.41 76.05z"/>
					<path id="&lt;Path&gt;" class="s6" d="m503.55 102.94c0 0 3.09-19.58 13.58-24.26 0 0-1.96-7.69 6.21-16.27 0 0-21.97 10.07-19.79 40.53z"/>
					<path id="&lt;Path&gt;" class="s5" d="m680.37 124.86c0 0-14.34 5.38-14.81 17.99-0.48 12.6 28.99 4.49 28.99 4.49 0 0-4.6-17.3-14.18-22.48z"/>
					<path id="&lt;Path&gt;" class="s11" d="m568.77 29.96c0 0-17.08 10.35-33.73 15.57-16.65 5.22-23.64 0.62-23.64 0.62 0 0 25.65-20.5 57.37-16.19z"/>
					<path id="&lt;Path&gt;" class="s11" d="m421.35 80.16c0 0-9.62 10.32-29.04 21.2-19.41 10.88-33.36 12.05-33.36 12.05 0 0 6.08-23 62.4-33.25z"/>
					<path id="&lt;Path&gt;" class="s11" d="m475.7 50.46c0 0-16.25 8.36-29.57 14.19-13.33 5.83-18.02 5.63-18.02 5.63 0 0 11.75-22.41 47.59-19.82z"/>
					<path id="&lt;Path&gt;" class="s11" d="m357.93 137.39c0 0-12.69 6.6-29.38 17.56-10.96 7.19-23.04 22.08-23.04 22.08 0 0 5.01-24.34 52.42-39.64z"/>
					<path id="&lt;Path&gt;" class="s12" d="m668.21 236.88c0 0 10.87 38.31-19.32 73.51-30.2 35.21-255.65 52.96-269.98 44.36-14.32-8.6 156.09-127.26 216.78-134.71 60.69-7.46 72.52 16.84 72.52 16.84z"/>
					<path id="&lt;Path&gt;" class="s6" d="m518.97 446.74c0 0-29.88-4.48-37.77-37.31l154.28-50.97c0 0-103.5 62.29-116.51 88.28z"/>
					<path id="&lt;Path&gt;" class="s13" d="m610.68 197.18c0 0-15.46-16.93-22.48-20.4-7.02-3.47-21.46-3.91-21.46-3.91l4.11-6.67c0 0 10.68 3.59 16.79 3.35 6.11-0.23 23.18-3.83 23.18-3.83 0 0 2.33 26.37-0.14 31.46z"/>
					<path id="&lt;Path&gt;" class="s13" d="m326.6 240c0 0 4.84 13.23 52.87 13.26 48.09 0.07 114.49-14.7 124.03-20.97 8-5.22 25.12-33.84 32.29-44.77-9.03-0.74-17.9-2.69-19.91-4.25-3.52-2.59-6.91-36.23-6.91-36.23 0 0 1.6 70.21-1.09 76.58-2.63 6.42-60.76 30.29-71.77 14.07 0 0-35.1 9.52-46.27 4.68-11.16-4.83-15.21-16.48-15.21-16.48 0 0-1.84 18.27-16.01 21.32-14.18 3-26.61-1.7-32.02-7.21z"/>
					<path id="&lt;Path&gt;" class="s13" d="m307.94 208.27l9.7 25.6 7.31 4.12c-5.64-7.6-15.68-27.06-17.01-29.72z"/>
					<path id="&lt;Path&gt;" class="s14" d="m339.27 366.98c0 0-15.3-60.57-23.32-109.64 0 0 23.67 53.3 23.32 109.64z"/>
					<path id="&lt;Path&gt;" class="s14" d="m398.46 673.12c0 0-11.48-129.51-12.56-200.18 0 0-8.36 136 1 200.01z"/>
					<path id="&lt;Path&gt;" class="s14" d="m677.67 312.57c0 0-8.68 28.61-38.37 39.74-29.69 11.13-100.25 28.94-100.25 28.94 0 0 110.02-27.84 138.62-68.68z"/>
					<path id="&lt;Path&gt;" class="s14" d="m364.55 123.68c0 0-0.31 44.32 5.74 70.08 0 0-13.43-26.21-5.74-70.08z"/>
					<path id="&lt;Path&gt;" class="s14" d="m314.35 175.45c0 0-1.6 23.88 6.53 38.93 0 0-16.48-18.36-6.53-38.93z"/>
					<path id="&lt;Path&gt;" class="s14" d="m433.63 80.04c0 0-8.08 54.53-1.46 102.55 0 0-16.49-53.69 1.46-102.55z"/>
					<path id="&lt;Path&gt;" class="s14" d="m673.76 124.77c0 0-24.37-13.17-51.54-15.96 0 0 21.2 16.31 51.54 15.96z"/>
					<path id="&lt;Path&gt;" class="s14" d="m689.88 159.37c0 0-10.61 18.25-12.59 38.76-1.98 20.5 5.1 64.66 5.1 64.66 0 0-1.3-75.38 7.49-103.42z"/>
					<path id="&lt;Path&gt;" class="s14" d="m534.31 679.87c0 0-36.11-145.62-27.55-219.98 0 0 13.88 86.24 27.55 219.98z"/>
					<path id="&lt;Path&gt;" class="s15" d="m504.74 211.07c-1.92 8.49-28.3 29.24-47.71 22.87 0 0 24.22-9.81 34.88-14.24 10.65-4.43 12.83-8.63 12.83-8.63z"/>
					<path id="&lt;Path&gt;" class="s15" d="m427.6 234.61c0 0-40.1 12.05-49.42-8.65 0 0 27.94 13.4 49.42 8.65z"/>
					<path id="&lt;Path&gt;" class="s15" d="m345.55 246.03c0 0-15.19-10.48-20.56-11.1 0 0 5.64 11.07 20.56 11.1z"/>
					<path id="&lt;Path&gt;" class="s7" d="m498.59 192.31c0 0-14.98 10.35-39.29 10.97-24.31 0.62-32.79-12.28-32.79-12.28 0 0 33.48 14.03 72.08 1.31z"/>
					<path id="&lt;Path&gt;" class="s7" d="m415.91 198.66c0 0-6.74 9.68-20.75 12.37-14 2.69-24.97-10-24.97-10 0 0 21.85 6.78 45.72-2.37z"/>
					<path id="&lt;Path&gt;" class="s7" d="m361.24 214.96c0 0-6.93 7.48-17.54 8.56-10.61 1.08-22.85-7.19-22.85-7.19 0 0 12.93 4.57 40.39-1.37z"/>
				</g>
			</g>
		</g>
	</g>
</svg>