<svg version="1.2" xmlns="http://www.w3.org/2000/svg" viewBox="0 0 375.22 683.52" width="376" height="684">
	<defs>
		<radialGradient id="g1" cx="0" cy="0" r="1" gradientUnits="userSpaceOnUse" gradientTransform="matrix(1701.592,0,0,-1701.592,143.71,49.235)">
			<stop offset=".006" stop-color="#e7e5f0"/>
			<stop offset="1" stop-color="#8e75a0"/>
		</radialGradient>
		<linearGradient id="g2" x2="1" gradientUnits="userSpaceOnUse" gradientTransform="matrix(34.186,-443.796,314.76,24.246,-133.501,431.147)">
			<stop offset="0" stop-color="#ff8777"/>
			<stop offset=".984" stop-color="#ffb880"/>
		</linearGradient>
		<linearGradient id="g3" x2="1" gradientUnits="userSpaceOnUse" gradientTransform="matrix(33.221,-431.266,291.446,22.45,-144.228,680.554)">
			<stop offset=".016" stop-color="#ffb880"/>
			<stop offset="1" stop-color="#ff8777"/>
		</linearGradient>
		<linearGradient id="g4" x2="1" gradientUnits="userSpaceOnUse" gradientTransform="matrix(177.58,13.679,-8.401,109.063,132.788,365.037)">
			<stop offset="0" stop-color="#000000"/>
			<stop offset="1" stop-color="#ec4400"/>
		</linearGradient>
	</defs>
	<style>
		.s0 { opacity: .8;mix-blend-mode: multiply;fill: url(#g1) } 
		.s1 { fill: #ffffff } 
		.s2 { fill: url(#g2) } 
		.s3 { opacity: .5;mix-blend-mode: multiply;fill: #d87290 } 
		.s4 { opacity: .31;mix-blend-mode: multiply;fill: #d87290 } 
		.s5 { fill: url(#g3) } 
		.s6 { opacity: .97;mix-blend-mode: soft-light;fill: #f5af8f } 
		.s7 { fill: #e86c7c } 
		.s8 { opacity: .97;mix-blend-mode: soft-light;fill: #f5d3d2 } 
		.s9 { fill: #ab3d52 } 
		.s10 { opacity: .6;mix-blend-mode: multiply;fill: #f3bac0 } 
		.s11 { mix-blend-mode: screen;fill: url(#g4) } 
		.s12 { fill: #b24d61 } 
		.s13 { opacity: .97;mix-blend-mode: soft-light;fill: #f5ee8f } 
		.s14 { opacity: .3;mix-blend-mode: multiply;fill: #d87290 } 
		.s15 { opacity: .97;mix-blend-mode: soft-light;fill: #f5a995 } 
		.s16 { opacity: .97;mix-blend-mode: soft-light;fill: #f5ffff } 
	</style>
	<g id="Layer 1">
		<g id="&lt;Group&gt;">
			<g id="&lt;Clip Group&gt;">
				<g id="&lt;Group&gt;">
					<path id="&lt;Path&gt;" class="s0" d="m316.47 448.31c-0.4 11.67-15.51 33.17-33.04 47.68-17.53 14.51-75.08 30.24-84.79 58.2-6.62 19.06 1.99 84.4 5.44 129.33h-144.61c8.45-49.6 25.25-129.74 19.97-136.49-7.53-9.61-30.59-6.63-42.08-32.45-11.55-25.93-17.11-73.84-19.95-105.61-2.84-31.76-17.92-65.56-17.4-77.23 0.52-11.68 27.93-37.39 55.51-35.56 6.05 0.4 7.73-26.29 19.11-36.75 11.38-10.45 40.06-13.53 49.54-9.78 9.48 3.75 14.46 9.42 16.01 8.03 1.56-1.39-6.59-70.28-6.97-78.49-0.39-8.21-4.28-124.63 5.77-147.2 10.06-22.58 47.96-14.37 62.43-1.17 14.47 13.21 5.96 127.89 3.79 153.92-2.16 26.03 1.08 102.96 4.95 108.55 3.86 5.59 16.17 3.1 17.97-2.06 1.8-5.15 23.48-83.15 29.38-95.92 5.89-12.76 26.83-121.17 39.75-131.97 12.92-10.8 44.16-4.4 54.67 35.72 10.51 40.11-50.7 173.04-59.5 215.36-8.8 42.32 24.44 122.21 24.05 133.89z"/>
					<path id="&lt;Path&gt;" class="s1" d="m343.09 188.97c-2.4 4.84-4.18 8.72-5.62 12.26-3.68 8.91-11.37 33.78-27.28 101.72l0.28 2.67c1.39 13.63 3.72 36.45 6.35 48.35 1.5 6.79 5.24 17.49 8.86 27.83 2.58 7.36 5.24 14.96 7.26 21.62 3.62 11.74 4.57 18.19 3.4 22.97-2.76 11.49-14.74 29.45-26.15 39.19l-0.07 0.07c-3.71 3.13-11.99 8.14-26.31 16.72-19.29 11.55-59.38 35.57-64.77 45.1-0.24 0.55-1.95 5.05-2.72 24.36l-0.07 1.84c-0.38 10.54-0.45 23.78-0.21 39.4l0.01 0.45 0.06 0.49-0.05 0.57c0.27 16.14 0.85 34.59 1.73 54.86l0.02 0.62c0.59 13.53 1.19 25.31 1.64 33.46h-140.29c6.11-54.21 15.22-138.75 16.26-157.79-1.98-1.38-4.8-3.22-7.07-4.7-13.42-8.75-23.22-15.48-27.05-22.51-1.76-3.21-3.65-7.63-5.46-12.76l-0.7-2.05c-4.3-12.53-7.29-26.22-8.07-37.03-0.64-8.78-3.58-25.93-5.81-38.39l-0.16-0.8c-1.87-10.14-3.52-18.4-3.8-19.79-2.61-10.57-14.92-61-15.09-73.65-0.24-14.01 11.9-33.09 32.66-41 7.35-3.73 14.86-4.58 20.51-4.51 2.64-7.82 6.73-18.7 10.62-24.04 5.16-6.98 17.48-13.12 26.48-16.27 8.38-2.97 20.7-5.87 31.61-2.74 4.07 1.17 7.82 3.34 11.23 6.11l-2.6-43.53-0.13-0.68 0.02-0.31q-0.47-3.64-0.94-7.03c-1.61-11.83-2.35-17.7-1.62-21.76 0.33-2.2 0.03-11.87-0.18-18.94-0.14-4.28-0.27-8.71-0.36-13.07q-0.05-2.63-0.07-5.25v-0.6c-0.04-5.29-0.35-13.01-0.68-21.19-0.64-15.71-1.36-33.51-0.73-45.94 0.61-12.39 3.92-23.79 5.83-29.49 5.53-16.44 10.11-18.9 12.07-19.95 6.37-3.4 37.72-8.41 51.8 4.54 3 2.78 9.96 9.23 11.86 56.5 1.08 26.74 0.04 57.75-2.79 82.96-0.28 2.67-0.59 5.39-0.94 8.02 0.11 2.91 0.52 13.2 1.13 26.84q0.03 0.47 0.06 1.68l0.02 0.45q0.05 0.84 0.09 1.94 0.08 1.41 0.14 3.19v0.23q0.01 0.28 0.04 0.6l0.04 0.51c1.42 32.33 2.77 58.57 3.94 76.75q5.23 0.13 9.93 0.25 1.71 0.04 3.36 0.08c9.18-29.66 19.75-68.39 20.81-76.58 1.22-9.38 5.05-20.69 8.38-29.74l0.36-1.01q1.41-3.85 2.79-7.53c1.82-4.86 3.53-9.45 4.8-13.23 1.18-3.51 3.41-12.28 6-22.44 4.01-15.77 8.98-35.31 13.77-50.27l0.22-3.11 1.05-0.86c4.72-14.18 7.71-18.4 10.23-20.79 6.96-6.54 21.88-10.33 35.9-4.56 9.29 3.82 25.05 15.05 26.21 47.3 1.37 37.61-13.45 66.73-26.53 92.42-1.93 3.81-3.76 7.41-5.51 10.97z"/>
					<path id="&lt;Path&gt;" class="s2" d="m334.31 184.67c-2.18 4.38-4.18 8.65-5.9 12.86-9.22 22.38-27.51 101.4-36.54 141.54-3.21 14.34-5.25 23.72-5.25 23.72 0 0-34.48 81.6-53.59 94.24-11.89 7.86-79.54-14.65-129.89-37.19-30.48-13.67-54.63-27.33-56.29-34.28 0 0-14.69-59.39-14.86-71.64-0.21-12.3 15.73-37.55 50.29-34.85l0.06-0.24c0.75-2.45 6.84-22.08 11.57-28.57 2.76-3.74 11.64-9.24 21.8-12.8 8.69-3.08 18.27-4.69 25.68-2.57 12.29 3.54 21.9 21.63 25.72 29.97 1.06 2.28 1.71 3.8 1.84 4.17-0.13-2.44-3.59-52.83-5.05-69.17-0.35-4.17-0.86-8.4-1.38-12.55q0-0.17-0.06-0.28c0.01-0.12-0.02-0.2-0.02-0.24q-0.04-0.19-0.03-0.2c-1.57-12.21-3.36-23.07-2.73-26.57 0.75-4.17-0.12-19.79-0.38-33.93q-0.07-2.93-0.08-5.74c-0.1-15.28-2.37-47.96-1.42-66.54 0.91-18.56 9.05-39.34 12.76-41.33 3.65-1.95 30.42-6.19 40.55 3.12 9.53 8.83 11.7 79.98 5.97 131.17q-0.46 4.45-1.03 8.66c0 0 0.44 11.43 1.17 27.84 0 0 0.04 0.52 0.05 1.44 0.03 0.64 0.08 1.52 0.12 2.56q0.08 1.32 0.13 3 0.01 0.71 0.08 1.48c1.82 41.17 4.86 103.18 7.02 107.81 3.25 6.99 12.01 10.65 16.92 5.93 4.91-4.69 31.7-97.85 33.58-112.42 1.07-8.21 4.55-18.67 8.22-28.6l0.01-0.03c2.82-7.72 5.71-15.16 7.68-21.03 3.21-9.56 12.11-49.07 20.11-73.77 0.01-0.08 0.06-0.2 0.06-0.28q0.06-0.05 0.05-0.11l0.01-0.08q0.06-0.12 0.05-0.12c3.09-9.61 6.08-16.87 8.45-19.12 8.55-8.04 43.91-10.98 45.59 36 1.47 40.47-17.7 71.49-31.04 98.74z"/>
					<path id="&lt;Path&gt;" class="s3" d="m266.96 278.85l-3.02 97.23-126.98 46.36-33.82-2.6c-30.48-13.67-54.63-27.33-56.29-34.28 0 0-14.69-59.39-14.86-71.64l16.74 8.3-2.02-18.3 9.43 13.81c0 0 5.69 11 8.13 11.95 2.44 0.94 40.09 2.33 44.45-17.95 0 0-16.9-26.07-26.44-32.66l0.06-0.24c0.75-2.45 6.84-22.08 11.57-28.57 0 0 12.24 25.98 16.56 38.67 4.33 12.66 55.47 8.74 63.47-3.44l-6.83-20.63-4.65-77.83q0.06 0.11 0.06 0.28c1.24 7.2 11.48 65.84 15.92 72.37 4.77 6.9 33.12 5.34 37.47-3.94 3.34-7.16 2.3-46.44 1.69-63.99 1.82 41.17 4.86 103.18 7.02 107.81 3.25 6.99 12.01 10.65 16.92 5.93 4.91-4.69 31.7-97.85 33.58-112.42 1.07-8.21 4.55-18.67 8.22-28.6z"/>
					<path id="&lt;Path&gt;" class="s4" d="m334.31 184.67c-2.18 4.38-4.18 8.65-5.9 12.86-9.22 22.38-27.51 101.4-36.54 141.54l-91.48-1.42c0 0-37.1-81.13-33.28-72.79 1.06 2.28 1.71 3.8 1.84 4.17-0.13-2.44-3.59-52.83-5.05-69.17-0.35-4.17-0.86-8.4-1.38-12.55q0-0.17-0.06-0.28c0.01-0.12-0.02-0.2-0.02-0.24q-0.04-0.19-0.03-0.2c-1.57-12.21-3.36-23.07-2.73-26.57 0.75-4.17-0.12-19.79-0.38-33.93l0.52-0.59c0 0 4.35 30.04 13.43 35.8 9.05 5.72 33.29 9.61 43.55-14.03q0.14-0.28 0.28-0.5-0.46 4.45-1.03 8.66c0 0 0.44 11.43 1.17 27.84 0 0 0.04 0.52 0.05 1.44 0.03 0.64 0.08 1.52 0.12 2.56q0.08 1.32 0.13 3 0.01 0.71 0.08 1.48c1.82 41.17 4.86 103.18 7.02 107.81 3.25 6.99 12.01 10.65 16.92 5.93 4.91-4.69 31.7-97.85 33.58-112.42 1.07-8.21 4.55-18.67 8.22-28.6l0.01-0.03c2.82-7.72 5.71-15.16 7.68-21.03 3.21-9.56 12.11-49.07 20.11-73.77-1.6 8.41-19.63 101.21-16.01 110.62 3.19 8.3 25.18 13.74 39.18 4.41z"/>
					<path id="&lt;Path&gt;" class="s5" d="m303.84 458.14l-0.04 0.04c-10.28 8.7-83.71 47.26-93.34 64.59-6.25 11.2-4.5 79.72-2.45 127.09v0.04c0.59 13.57 1.19 25.37 1.64 33.62h-120.64c2.44-21.73 17.75-158.92 16.17-162.24-1.75-3.56-30.43-18.53-35.29-27.44-1.5-2.75-3.19-6.71-4.83-11.34q0.01-0.05 0.01-0.04c-3.78-10.54-7.39-24.69-8.24-36.48-0.68-9.3-3.62-26.48-6.08-40.18l-0.03-0.09c-2.08-11.28-3.87-20.15-3.87-20.15 16.41 12.67 100.95 23.48 100.95 23.48 10.66-9.5 32.68-21.01 53.17-30.83 4.64-2.24 9.2-4.4 13.54-6.42 0.12-0.03 0.21-0.1 0.33-0.13 17.11-7.9 30.48-13.73 30.67-14.67 0.42-2.24 1.5-23.05 1.5-23.05 0 0-29.2 3.29-42.66 1.5-13.46-1.79-53.31-27.03-53.81-37.12-0.36-7.76 2.24-19.29 6.14-24.77q0.2-0.29 0.27-0.42c0 0 0.04 0.01 0.04-0.03q0 0.01 0-0.04h0.04c1.07-1.39 2.25-2.3 3.47-2.56 5.87-1.15 30.5 6.25 61.14 7.1 30.68 0.84 50.04 1.06 57.02 2.11 6.98 1.06 19.78 11.34 20.58 13.95 0.8 2.57 3.92 43.84 8.03 62.42 2.72 12.34 11.45 34.18 16.31 50.19 2.49 8.08 4.02 14.7 3.26 17.79-2.23 9.28-12.88 25.45-23 34.08z"/>
					<path id="&lt;Path&gt;" class="s4" d="m157.03 273.06q0.01-0.01-0.04 0.04 0 0.01 0-0.04z"/>
					<path id="&lt;Path&gt;" class="s4" d="m147.8 409.04c10.66-9.5 32.68-21.01 53.17-30.83-32.7 17.73-56.68 46.91-56.68 46.91-43.58 15.51-68.13 42.17-79.22 57.34-3.78-10.54-7.39-24.69-8.24-36.48-0.68-9.3-3.62-26.48-6.08-40.18l-0.03-0.09c-2.08-11.28-3.87-20.15-3.87-20.15 16.41 12.67 100.95 23.48 100.95 23.48z"/>
					<path id="&lt;Path&gt;" class="s4" d="m200.97 378.21c4.37-2.38 8.89-4.54 13.54-6.42-4.34 2.02-8.9 4.18-13.54 6.42z"/>
					<path id="&lt;Path&gt;" class="s4" d="m323.58 406.27c-29.26-7.28-75.92-41.38-75.92-41.38-11.25-0.03-22.33 2.59-32.82 6.77 17.11-7.9 30.48-13.73 30.67-14.67 0.42-2.24 1.5-23.05 1.5-23.05 0 0-29.2 3.29-42.66 1.5-13.46-1.79-53.31-27.03-53.81-37.12-0.36-7.76 2.24-19.29 6.14-24.77-1.65 2.75-8.7 16.08 3.16 28.28 13.31 13.66 85.27 25.66 97.76 20.96 12.44-4.7 41.64-29.13 41.64-29.13 0.8 2.57 3.92 43.84 8.03 62.42 2.72 12.34 11.45 34.18 16.31 50.19z"/>
					<path id="&lt;Path&gt;" class="s3" d="m247.01 333.94l23.63-4.47-23.91 11.76z"/>
					<path id="&lt;Path&gt;" class="s3" d="m247.01 333.94l-1.5 23.05c0 0-48.37-0.18-97.71 52.05 0 0-44.26-4.47-69.51-12.24l-14.46-20.55-15.1-54.03-2.02-18.3 11.11 22.76c0 0 6.18 22.77 9.04 29.78 2.86 7.03 18.6 18.44 24.44 18.7 5.84 0.26 22.49-7.53 24.67-11.33 2.18-3.79-7.25-52.1-7.25-52.1 0 0-17.36-25.17-26.44-32.66 0 0 24.5 15.3 28.26 20.32 3.77 5.01 13.67 50.72 21.58 55.87 7.92 5.14 26.66 2.05 32.04-1.5 5.37-3.56 11.8-31.58 11.8-31.58 0 0 21.55 12.1 28.39 13.26 6.84 1.16 42.66-1.5 42.66-1.5z"/>
					<path id="&lt;Path&gt;" class="s6" d="m164.34 270.52c-3.82-0.39-7.77 15.23-1.48 19.3 6.28 4.07 47.94 5.2 58.36-2.5 10.41-7.7-14.69-12.57-56.88-16.8z"/>
					<path id="&lt;Path&gt;" class="s7" d="m164.42 290.54c0 0 10.54 4.55 30.96 3.95 20.42-0.6 34.28-7.75 35.41-11.35 1.13-3.59-20.99-6.19-20.99-6.19 0 0 13.88 3.36 13.03 7.85-0.86 4.49-35.03 12.77-58.41 5.74z"/>
					<path id="&lt;Path&gt;" class="s8" d="m169.1 270.87c0 0-3.46 10.41-1.74 20.46 0 0-2.9-0.46-5.11-1.98-2.21-1.52-5-14.11 2.09-18.83z"/>
					<path id="&lt;Path&gt;" class="s8" d="m209.8 276.95c0 0-3.82 2.21-3.29 5.08 0.54 2.88 13.09 5.34 13.09 5.34 0 0 3.77-1.03 3-3.96-0.76-2.94-12.8-6.46-12.8-6.46z"/>
					<path id="&lt;Path&gt;" class="s6" d="m114 362.3c0 0-1.95 9.22-21.04 11.66-0.84 0.09-1.66-0.77-2.37-2.3-2.31-4.76-3.66-15.67-1.73-22.62l0.26-0.78q0.15-0.6 0.36-1.13c0.05-0.07 0.06-0.15 0.1-0.19 2.39-5.16 10.96-6.69 17.26-1.98 3.47 2.58 6.23 7.06 6.95 13.85q-0.02 0.06 0.03 0.12 0.18 1.57 0.18 3.37z"/>
					<path id="&lt;Path&gt;" class="s6" d="m165.46 349.99q-0.5 1.29-1.02 1.92c-2.42 2.96-15.08 9.44-26.39 2.51q-0.45-0.27-0.83-0.66c-1.14-1.17-1.87-3.14-2.28-5.52v-0.12c-1.27-7.75 0.93-20.31 5.33-27.78 1.46-2.4 3.13-4.31 4.96-5.32 7.95-4.37 16.43-0.49 20.38 5.59q0.1 0.13 0.14 0.25 1.03 1.59 1.62 3.32 0.16 0.42 0.25 0.9c1.8 7.19-0.08 19.69-2.16 24.91z"/>
					<path id="&lt;Path&gt;" class="s3" d="m165.61 320.61l0.99 2.19c-3.54-5.25-15.69-12.13-23.36-3.15-8.11 9.54-8.33 25.84-8.3 28.47-1.68-10.26 2.71-28.94 10.29-33.1 7.95-4.37 16.43-0.49 20.38 5.59z"/>
					<path id="&lt;Path&gt;" class="s3" d="m167.62 325.08l-1.02-2.28q0.54 0.7 0.77 1.38 0.16 0.42 0.25 0.9z"/>
					<path id="&lt;Path&gt;" class="s3" d="m113.79 358.81c-0.77-3.05-4.7-16.71-16.71-13.49-13.28 3.57-6.71 25.57-6.49 26.34-2.51-5.22-3.97-17.85-1.11-24.53 3.5-8.18 22.32-7.65 24.31 11.68z"/>
					<path id="&lt;Path&gt;" class="s8" d="m114 362.3c0 0-1.95 9.22-21.04 11.66-0.84 0.09-1.66-0.77-2.37-2.3 0 0 14.62-0.39 23.41-9.36z"/>
					<path id="&lt;Path&gt;" class="s8" d="m165.46 349.99q-0.5 1.29-1.02 1.92c-2.42 2.96-15.08 9.44-26.39 2.51q-0.45-0.27-0.83-0.66c4.18 0.6 17.91 1.98 28.24-3.77z"/>
					<path id="&lt;Path&gt;" class="s9" d="m175.96 322.18c0 0 21.42 15.49 29.08 17.34 7.67 1.86 39.06-3.29 40.47 17.47l1.5-23.05c0 0-31.93 3.03-42.66 1.5-10.73-1.53-28.39-13.26-28.39-13.26z"/>
					<path id="&lt;Path&gt;" class="s9" d="m164.86 353.15c0 0-1.18 3.59-23.31 9.69-22.13 6.11-45.3 14.9-51.42 14.68-6.11-0.22-21.97-18.75-21.97-18.75 0 0 18.09 17.32 23.14 16.39 5.05-0.94 21.53-7.35 24.67-11.33 3.14-3.97-4.61-37.86-4.61-37.86 0 0 8.62 18.56 18.05 26.15 9.42 7.58 29.35 7.1 35.45 1.03z"/>
					<path id="&lt;Path&gt;" class="s9" d="m150.54 298.32c0 0 2.55 11.96 24.11 29.14l11.94 0.92c0 0-22.92-10.91-36.05-30.06z"/>
					<path id="&lt;Path&gt;" class="s10" d="m207.98 649.7c-1.48-6.1-31.71-135.99-9.98-151.54 21.94-15.66 103.25-39.5 105.8-39.98-10.28 8.7-83.71 47.26-93.34 64.59-6.25 11.2-4.49 79.56-2.48 126.93z"/>
					<path id="&lt;Path&gt;" class="s10" d="m210.46 522.77c-6.25 11.2-4.5 79.72-2.45 127.09v0.04c0.59 13.57 1.19 25.37 1.64 33.62h-120.64c2.44-21.73 17.75-158.92 16.17-162.24-1.75-3.56-30.43-18.53-35.29-27.44 0 0 24.11 7.52 69.17 5.44 45.06-2.07 164.74-41.1 164.74-41.1-10.28 8.7-83.71 47.26-93.34 64.59z"/>
					<path id="&lt;Path&gt;" class="s3" d="m303.8 458.18c-10.28 8.7-83.71 47.26-93.34 64.59l-12.46-24.61c21.94-15.66 103.25-39.5 105.8-39.98z"/>
					<path id="&lt;Path&gt;" class="s11" d="m124.9 467.34c-3.43 14.82 102.21 12.55 148.83-15.74 32.46-19.7 34.96-35.77 33.93-43.61-1.02-7.84-40.72-36.33-72.35-34.6-31.64 1.73-100.59 51.54-110.41 93.95z"/>
					<path id="&lt;Path&gt;" class="s12" d="m135.53 440.96c0 0 19.99-53.49 109.98-83.97 0 0-89.89 9.46-109.98 83.97z"/>
					<path id="&lt;Path&gt;" class="s13" d="m100.14 247.59c0 0 30.18-1.74 42.36-9.21 0 0-22.29-7.36-42.36 9.21z"/>
					<path id="&lt;Path&gt;" class="s13" d="m47.55 293.02c0 0 23.48-0.09 34.73-13.95 0 0-23.42-5.57-34.73 13.95z"/>
					<path id="&lt;Path&gt;" class="s13" d="m171.86 14.86c0 0 23.97 6.35 39.25 0.74 0 0-21.98-9.71-39.25-0.74z"/>
					<path id="&lt;Path&gt;" class="s13" d="m319.76 49.93c0 0 28.08 11.62 41.17 24.7 0 0-2.15-15.83-12.62-22.51-10.47-6.68-28.55-2.19-28.55-2.19z"/>
					<path id="&lt;Path&gt;" class="s14" d="m67 330.03c0 0 11.69 4.29 26.63 2.05 14.95-2.25 14.5-18.3 14.5-18.3 0 0-8.28 17.24-41.13 16.25z"/>
					<path id="&lt;Path&gt;" class="s14" d="m117.36 294.39c0 0 21.36 7.85 34.66 7.68 0 0-1.28-3.35-1.25-6.69 0 0-7.37 1.93-33.41-0.99z"/>
					<path id="&lt;Path&gt;" class="s15" d="m64.78 336.03l13.39 28.99c0 0-9.3-7.68-9.71-10.15-0.4-2.47-3.68-18.84-3.68-18.84z"/>
					<path id="&lt;Path&gt;" class="s16" d="m265.76 461.9c0 0 27.48-3.64 33.13-8.37 5.66-4.72 24.89-21.61 25.8-30.87 0.92-9.26-16.37-57.25-16.37-57.25 0 0 12.09 43.58 7.71 56.59-4.38 13-25.34 32.59-50.27 39.9z"/>
					<path id="&lt;Path&gt;" class="s16" d="m106.27 673.8c2.18 3.55 5.07 6.85 8.03 9.72h-11.96c-3.19-1.71-5.77-3.4-7.02-4.9-5.08-6.1 14.92-149.58 14.92-149.58 0 0-11.02 133.26-3.97 144.76z"/>
					<path id="&lt;Path&gt;" class="s16" d="m55.99 401.97c0 0 3.69 58.96 10.99 77.94 7.3 18.99 34.96 32.76 34.96 32.76 0 0-19.95-14.13-29.52-40.31-9.57-26.17-16.43-70.39-16.43-70.39z"/>
					<path id="&lt;Path&gt;" class="s16" d="m169.69 20.24c0 0-6.47 12.05-7.46 37.93-0.98 25.89 1.41 103.39 1.41 103.39 0 0 5.18-133.57 6.05-141.32z"/>
					<path id="&lt;Path&gt;" class="s16" d="m360.29 83.01c0 0-12.64 69.29-33.1 102.73 0 0 21.37-28.34 29.74-59.16 8.37-30.83 3.36-43.57 3.36-43.57z"/>
					<path id="&lt;Path&gt;" class="s16" d="m205.05 683.52h-0.56c-3.51-22.46-12.35-89.69-2.63-147.42 0 0-0.15 105.17 3.19 147.42z"/>
					<path id="&lt;Path&gt;" class="s16" d="m231.99 278.66c0 0 21.29 5.56 32.39 4.9 11.1-0.66 14.28-3.85 14.28-3.85z"/>
					<path id="&lt;Path&gt;" class="s6" d="m299.24 293.66c0 0-10.22 1.93-17.51-1.51-7.29-3.44-3.07-12.44-3.07-12.44 0 0 9.81 3.32 20.58 13.95z"/>
					<path id="&lt;Path&gt;" class="s3" d="m150.54 298.32l3-5.59c0 0 0.35-16.6 6.96-22.23 0 0-9.79 2.66-9.96 27.82z"/>
				</g>
			</g>
		</g>
	</g>
</svg>